<?xml version="1.0" standalone="no"?>
<!DOCTYPE svg PUBLIC "-//W3C//DTD SVG 20010904//EN"
 "http://www.w3.org/TR/2001/REC-SVG-20010904/DTD/svg10.dtd">
<svg version="1.0" xmlns="http://www.w3.org/2000/svg"
 width="500.000000pt" height="500.000000pt" viewBox="0 0 500.000000 500.000000"
 preserveAspectRatio="xMidYMid meet">
<metadata>
Created by potrace 1.14, written by Peter Selinger 2001-2017
</metadata>
<g transform="translate(0.000000,500.000000) scale(0.100000,-0.100000)"
fill="#000000" stroke="none">
<path d="M1326 3890 c-290 -46 -536 -204 -675 -435 -49 -81 -98 -218 -117
-327 -22 -129 -14 -370 16 -483 99 -369 384 -615 779 -675 166 -25 402 6 555
74 32 14 62 26 65 26 4 0 17 -18 30 -40 l22 -40 245 0 244 0 0 29 c0 18 -33
84 -95 185 -52 86 -95 162 -95 167 0 6 11 30 25 54 39 65 83 196 100 292 19
110 19 306 0 418 -64 365 -319 638 -684 732 -108 27 -313 39 -415 23z m280
-474 c253 -67 392 -333 329 -629 -30 -141 -130 -267 -262 -330 -65 -31 -73
-32 -193 -32 -120 0 -128 1 -193 32 -169 80 -263 230 -274 438 -13 255 107
446 325 516 69 22 196 24 268 5z"/>
<path d="M3466 3870 c-151 -24 -300 -81 -417 -161 -75 -50 -182 -154 -227
-220 -185 -272 -220 -663 -87 -980 179 -426 679 -643 1175 -508 87 24 211 83
281 135 151 110 266 298 304 497 l13 67 -239 0 c-185 0 -239 -3 -239 -12 0
-31 -62 -137 -101 -175 -86 -82 -198 -119 -339 -111 -139 8 -247 66 -330 177
-73 97 -110 211 -110 341 0 249 117 432 321 500 87 30 244 25 334 -10 75 -29
172 -122 201 -192 l19 -48 237 0 238 0 -6 33 c-11 59 -65 212 -91 257 -148
256 -418 405 -753 415 -69 2 -152 0 -184 -5z"/>
<path d="M1210 1714 c-30 -8 -73 -27 -94 -42 -138 -95 -158 -329 -38 -451 65
-67 141 -95 238 -88 112 8 194 59 242 151 23 44 27 63 27 141 0 79 -4 97 -29
149 -58 119 -207 179 -346 140z m166 -155 c43 -26 68 -85 62 -149 -9 -89 -73
-145 -157 -137 -78 8 -131 71 -131 155 0 128 118 196 226 131z"/>
<path d="M3161 1708 c-5 -13 -64 -142 -130 -287 -67 -145 -121 -267 -121 -272
0 -5 33 -9 73 -9 l73 0 17 35 17 35 115 0 115 0 17 -35 c17 -35 17 -35 85 -35
56 0 68 3 68 16 0 10 -57 142 -127 295 l-128 279 -33 0 c-24 0 -35 -6 -41 -22z
m77 -295 l31 -73 -64 0 c-36 0 -65 2 -65 4 0 2 9 26 21 53 11 26 25 59 30 72
5 13 11 22 13 20 2 -2 18 -37 34 -76z"/>
<path d="M533 1704 c-61 -22 -126 -85 -154 -146 -35 -79 -34 -193 4 -270 30
-61 79 -107 144 -135 58 -25 186 -24 243 3 77 37 124 95 144 177 l6 27 -73 0
c-72 0 -73 0 -84 -30 -8 -22 -25 -36 -57 -51 -79 -34 -150 -6 -187 75 -24 52
-24 100 1 153 27 60 70 85 139 80 47 -3 59 -9 88 -40 32 -36 36 -37 102 -37
l70 0 -10 33 c-14 51 -61 109 -113 141 -42 26 -58 30 -134 33 -60 2 -100 -2
-129 -13z"/>
<path d="M1700 1430 l0 -290 75 0 74 0 3 127 3 128 59 -63 c33 -34 65 -62 71
-62 7 0 38 27 69 60 32 33 59 60 62 60 2 0 4 -56 4 -125 l0 -125 75 0 75 0 0
290 0 290 -26 0 c-26 0 -32 -6 -206 -194 l-54 -58 -86 93 c-47 52 -98 109
-113 127 -19 23 -35 32 -56 32 l-29 0 0 -290z"/>
<path d="M2410 1431 l0 -291 75 0 75 0 0 75 0 75 78 0 c161 1 242 84 229 236
-6 76 -33 124 -90 162 -39 26 -46 27 -204 30 l-163 4 0 -291z m299 133 c12
-15 21 -41 21 -59 0 -18 -9 -44 -21 -59 -18 -23 -27 -26 -85 -26 l-64 0 0 85
0 85 64 0 c58 0 67 -3 85 -26z"/>
<path d="M3580 1430 l0 -290 75 0 74 0 3 140 3 140 140 -140 c112 -111 146
-140 168 -140 l27 0 0 290 0 290 -75 0 -74 0 -3 -140 -3 -139 -142 139 c-108
107 -147 140 -167 140 l-26 0 0 -290z"/>
<path d="M4150 1706 c0 -8 43 -83 95 -167 l95 -153 0 -123 0 -123 75 0 75 0 0
125 0 125 91 147 c50 80 94 154 96 164 5 17 -1 19 -75 19 l-80 0 -52 -95 c-28
-53 -55 -93 -60 -90 -5 3 -30 46 -57 95 l-48 90 -77 0 c-60 0 -78 -3 -78 -14z"/>
</g>
</svg>
